<mxfile host="app.diagrams.net" modified="2022-06-20T09:06:33.502Z" agent="5.0 (Windows NT 10.0; Win64; x64) AppleWebKit/537.36 (KHTML, like Gecko) Chrome/102.0.0.0 Safari/537.36" etag="RsxPOAXdwsrVy6NQlIFD" version="20.0.1" type="github">
  <diagram id="Tzrxw52EKtg15QlJ3nBm" name="Page-1">
    <mxGraphModel dx="1673" dy="908" grid="1" gridSize="10" guides="1" tooltips="1" connect="1" arrows="1" fold="1" page="1" pageScale="1" pageWidth="827" pageHeight="1169" math="0" shadow="0">
      <root>
        <mxCell id="0" />
        <mxCell id="1" parent="0" />
        <mxCell id="-WH8ogVmigUCi3VjWPd5-4" style="edgeStyle=orthogonalEdgeStyle;rounded=0;orthogonalLoop=1;jettySize=auto;html=1;exitX=0.5;exitY=1;exitDx=0;exitDy=0;" edge="1" parent="1" source="-WH8ogVmigUCi3VjWPd5-1" target="-WH8ogVmigUCi3VjWPd5-3">
          <mxGeometry relative="1" as="geometry" />
        </mxCell>
        <mxCell id="-WH8ogVmigUCi3VjWPd5-1" value="Start" style="ellipse;whiteSpace=wrap;html=1;" vertex="1" parent="1">
          <mxGeometry x="294" y="80" width="120" height="80" as="geometry" />
        </mxCell>
        <mxCell id="-WH8ogVmigUCi3VjWPd5-7" style="edgeStyle=orthogonalEdgeStyle;rounded=0;orthogonalLoop=1;jettySize=auto;html=1;exitX=0.5;exitY=1;exitDx=0;exitDy=0;" edge="1" parent="1" source="-WH8ogVmigUCi3VjWPd5-3" target="-WH8ogVmigUCi3VjWPd5-5">
          <mxGeometry relative="1" as="geometry" />
        </mxCell>
        <mxCell id="-WH8ogVmigUCi3VjWPd5-3" value="string[] array ={ &quot;a&quot;, &quot;12&quot;, &quot;dcae12&quot;, &quot;ПриветЗдравствуйте&quot;, &quot;21389&quot;, &quot;K&quot;};" style="shape=parallelogram;perimeter=parallelogramPerimeter;whiteSpace=wrap;html=1;fixedSize=1;fontFamily=Helvetica;fontSize=12;fontColor=default;align=center;strokeColor=default;fillColor=#FFFFFF;" vertex="1" parent="1">
          <mxGeometry x="241" y="190" width="226" height="60" as="geometry" />
        </mxCell>
        <mxCell id="-WH8ogVmigUCi3VjWPd5-9" style="edgeStyle=orthogonalEdgeStyle;rounded=0;orthogonalLoop=1;jettySize=auto;html=1;exitX=0.5;exitY=1;exitDx=0;exitDy=0;" edge="1" parent="1" source="-WH8ogVmigUCi3VjWPd5-5" target="-WH8ogVmigUCi3VjWPd5-8">
          <mxGeometry relative="1" as="geometry" />
        </mxCell>
        <mxCell id="-WH8ogVmigUCi3VjWPd5-5" value="&lt;div&gt;var result = new string[array.Length];&lt;/div&gt;&lt;div&gt;var sizeElementa = 0;&lt;/div&gt;" style="shape=parallelogram;perimeter=parallelogramPerimeter;whiteSpace=wrap;html=1;fixedSize=1;fontFamily=Helvetica;fontSize=12;fontColor=default;align=center;strokeColor=default;fillColor=#FFFFFF;" vertex="1" parent="1">
          <mxGeometry x="241" y="270" width="226" height="60" as="geometry" />
        </mxCell>
        <mxCell id="-WH8ogVmigUCi3VjWPd5-11" style="edgeStyle=orthogonalEdgeStyle;rounded=0;orthogonalLoop=1;jettySize=auto;html=1;exitX=0.5;exitY=1;exitDx=0;exitDy=0;" edge="1" parent="1" source="-WH8ogVmigUCi3VjWPd5-8" target="-WH8ogVmigUCi3VjWPd5-10">
          <mxGeometry relative="1" as="geometry" />
        </mxCell>
        <mxCell id="-WH8ogVmigUCi3VjWPd5-28" style="edgeStyle=orthogonalEdgeStyle;rounded=0;orthogonalLoop=1;jettySize=auto;html=1;exitX=0;exitY=0.5;exitDx=0;exitDy=0;entryX=0.5;entryY=0;entryDx=0;entryDy=0;" edge="1" parent="1" source="-WH8ogVmigUCi3VjWPd5-8" target="-WH8ogVmigUCi3VjWPd5-24">
          <mxGeometry relative="1" as="geometry">
            <Array as="points">
              <mxPoint x="70" y="390" />
              <mxPoint x="70" y="680" />
              <mxPoint x="354" y="680" />
            </Array>
          </mxGeometry>
        </mxCell>
        <mxCell id="-WH8ogVmigUCi3VjWPd5-8" value="foreach (var value in array)" style="rhombus;whiteSpace=wrap;html=1;fontFamily=Helvetica;fontSize=12;fontColor=default;align=center;strokeColor=default;fillColor=#FFFFFF;" vertex="1" parent="1">
          <mxGeometry x="267" y="360" width="174" height="60" as="geometry" />
        </mxCell>
        <mxCell id="-WH8ogVmigUCi3VjWPd5-15" style="edgeStyle=orthogonalEdgeStyle;rounded=0;orthogonalLoop=1;jettySize=auto;html=1;exitX=0;exitY=0.5;exitDx=0;exitDy=0;" edge="1" parent="1" source="-WH8ogVmigUCi3VjWPd5-10" target="-WH8ogVmigUCi3VjWPd5-13">
          <mxGeometry relative="1" as="geometry" />
        </mxCell>
        <mxCell id="-WH8ogVmigUCi3VjWPd5-18" style="edgeStyle=orthogonalEdgeStyle;rounded=0;orthogonalLoop=1;jettySize=auto;html=1;exitX=1;exitY=0.5;exitDx=0;exitDy=0;entryX=0.5;entryY=0;entryDx=0;entryDy=0;" edge="1" parent="1" source="-WH8ogVmigUCi3VjWPd5-10" target="-WH8ogVmigUCi3VjWPd5-14">
          <mxGeometry relative="1" as="geometry" />
        </mxCell>
        <mxCell id="-WH8ogVmigUCi3VjWPd5-10" value="if (value.Length &amp;lt;= 3)" style="rhombus;whiteSpace=wrap;html=1;fillColor=#FFFFFF;" vertex="1" parent="1">
          <mxGeometry x="256" y="480" width="196" height="80" as="geometry" />
        </mxCell>
        <mxCell id="-WH8ogVmigUCi3VjWPd5-19" style="edgeStyle=orthogonalEdgeStyle;rounded=0;orthogonalLoop=1;jettySize=auto;html=1;exitX=0.5;exitY=1;exitDx=0;exitDy=0;entryX=0.5;entryY=1;entryDx=0;entryDy=0;" edge="1" parent="1" source="-WH8ogVmigUCi3VjWPd5-13" target="-WH8ogVmigUCi3VjWPd5-14">
          <mxGeometry relative="1" as="geometry" />
        </mxCell>
        <mxCell id="-WH8ogVmigUCi3VjWPd5-13" value="result[sizeElementa] = value;" style="rounded=0;whiteSpace=wrap;html=1;fillColor=#FFFFFF;" vertex="1" parent="1">
          <mxGeometry x="100" y="585" width="156" height="60" as="geometry" />
        </mxCell>
        <mxCell id="-WH8ogVmigUCi3VjWPd5-20" style="edgeStyle=orthogonalEdgeStyle;rounded=0;orthogonalLoop=1;jettySize=auto;html=1;exitX=1;exitY=0.5;exitDx=0;exitDy=0;entryX=1;entryY=0.5;entryDx=0;entryDy=0;" edge="1" parent="1" source="-WH8ogVmigUCi3VjWPd5-14" target="-WH8ogVmigUCi3VjWPd5-8">
          <mxGeometry relative="1" as="geometry" />
        </mxCell>
        <mxCell id="-WH8ogVmigUCi3VjWPd5-14" value="sizeElementa++;" style="rounded=0;whiteSpace=wrap;html=1;fillColor=#FFFFFF;" vertex="1" parent="1">
          <mxGeometry x="450" y="585" width="120" height="60" as="geometry" />
        </mxCell>
        <mxCell id="-WH8ogVmigUCi3VjWPd5-16" value="yes" style="text;html=1;align=center;verticalAlign=middle;resizable=0;points=[];autosize=1;strokeColor=none;fillColor=none;" vertex="1" parent="1">
          <mxGeometry x="225" y="490" width="30" height="20" as="geometry" />
        </mxCell>
        <mxCell id="-WH8ogVmigUCi3VjWPd5-17" value="no" style="text;html=1;align=center;verticalAlign=middle;resizable=0;points=[];autosize=1;strokeColor=none;fillColor=none;" vertex="1" parent="1">
          <mxGeometry x="445" y="490" width="30" height="20" as="geometry" />
        </mxCell>
        <mxCell id="-WH8ogVmigUCi3VjWPd5-21" value="yes" style="text;html=1;align=center;verticalAlign=middle;resizable=0;points=[];autosize=1;strokeColor=none;fillColor=none;" vertex="1" parent="1">
          <mxGeometry x="355" y="420" width="30" height="20" as="geometry" />
        </mxCell>
        <mxCell id="-WH8ogVmigUCi3VjWPd5-23" value="no" style="text;html=1;align=center;verticalAlign=middle;resizable=0;points=[];autosize=1;strokeColor=none;fillColor=none;" vertex="1" parent="1">
          <mxGeometry x="245" y="370" width="30" height="20" as="geometry" />
        </mxCell>
        <mxCell id="-WH8ogVmigUCi3VjWPd5-27" style="edgeStyle=orthogonalEdgeStyle;rounded=0;orthogonalLoop=1;jettySize=auto;html=1;exitX=0.5;exitY=1;exitDx=0;exitDy=0;" edge="1" parent="1" source="-WH8ogVmigUCi3VjWPd5-24" target="-WH8ogVmigUCi3VjWPd5-26">
          <mxGeometry relative="1" as="geometry" />
        </mxCell>
        <mxCell id="-WH8ogVmigUCi3VjWPd5-24" value="Console.WriteLine(string.Join(Environment.NewLine, result, 0, sizeElementa));" style="rounded=0;whiteSpace=wrap;html=1;fillColor=#FFFFFF;" vertex="1" parent="1">
          <mxGeometry x="139" y="700" width="430" height="60" as="geometry" />
        </mxCell>
        <mxCell id="-WH8ogVmigUCi3VjWPd5-26" value="END" style="ellipse;whiteSpace=wrap;html=1;fillColor=#FFFFFF;" vertex="1" parent="1">
          <mxGeometry x="294" y="810" width="120" height="80" as="geometry" />
        </mxCell>
        <mxCell id="-WH8ogVmigUCi3VjWPd5-29" value="result[sizeElementa] = value;" style="rounded=0;whiteSpace=wrap;html=1;fillColor=#FFFFFF;" vertex="1" parent="1">
          <mxGeometry x="100" y="585" width="156" height="60" as="geometry" />
        </mxCell>
        <mxCell id="-WH8ogVmigUCi3VjWPd5-30" value="sizeElementa++;" style="rounded=0;whiteSpace=wrap;html=1;fillColor=#FFFFFF;" vertex="1" parent="1">
          <mxGeometry x="450" y="585" width="120" height="60" as="geometry" />
        </mxCell>
        <mxCell id="-WH8ogVmigUCi3VjWPd5-31" value="Console.WriteLine(string.Join(Environment.NewLine, result, 0, sizeElementa));" style="rounded=0;whiteSpace=wrap;html=1;fillColor=#FFFFFF;" vertex="1" parent="1">
          <mxGeometry x="139" y="700" width="430" height="60" as="geometry" />
        </mxCell>
      </root>
    </mxGraphModel>
  </diagram>
</mxfile>
